# xmcd
#
# Track frame offsets:
#       150
#       20070
#       41523
#       61950
#       92688
#       109488
#       122139
#       142271
#       163175
#       184547
#       206026
#       219489
#
# Disc length: 3120 seconds
#
# Revision: 0
# Processed by: cddbd v1.5.1PL0 Copyright (c) Steve Scherf et al.
# Submitted via: WaveLab 4.01
#
DISCID=b70c2e0c
DTITLE=Curtis Blues - Forget With Me
DYEAR=2005
DGENRE=Delta Blues 1920 - 1940
TTITLE0=Walking Blues
TTITLE1=Forget With Me
TTITLE2=Rock Me
TTITLE3=River of Missing You
TTITLE4=Kindhearted Woman
TTITLE5=King Bee
TTITLE6=Driftin' Blues
TTITLE7=Levee Camp Moan
TTITLE8=Moscow Rain
TTITLE9=Moon's Goin' Down
TTITLE10=Goodbye Baby
TTITLE11=Train Time
EXTD=
EXTT0=
EXTT1=
EXTT2=
EXTT3=
EXTT4=
EXTT5=
EXTT6=
EXTT7=
EXTT8=
EXTT9=
EXTT10=
EXTT11=
PLAYORDER=
